<mxfile host="app.diagrams.net" modified="2023-12-15T21:08:40.081Z" agent="Mozilla/5.0 (Windows NT 10.0; Win64; x64) AppleWebKit/537.36 (KHTML, like Gecko) Chrome/117.0.0.0 Safari/537.36" version="22.1.11" etag="4i_fS2YLrxOchqMXQ3-E" type="github">
  <diagram name="Page-1" id="gPMFRu9UwfF3rma0SvBa">
    <mxGraphModel>
      <root>
        <mxCell id="0" />
        <mxCell id="1" parent="0" />
      </root>
    </mxGraphModel>
  </diagram>
</mxfile>
